<?xml version="1.0" standalone="no"?>
<!DOCTYPE svg PUBLIC "-//W3C//DTD SVG 20010904//EN"
 "http://www.w3.org/TR/2001/REC-SVG-20010904/DTD/svg10.dtd">
<svg version="1.0" xmlns="http://www.w3.org/2000/svg"
 width="2000.000000pt" height="2000.000000pt" viewBox="0 0 2000.000000 2000.000000"
 preserveAspectRatio="xMidYMid meet">

<g transform="translate(0.000000,2000.000000) scale(0.100000,-0.100000)"
fill="#000000" stroke="none">
<path d="M0 10000 l0 -10000 10000 0 10000 0 0 10000 0 10000 -10000 0 -10000
0 0 -10000z m10986 8805 c12 -11 41 -15 123 -15 128 0 200 -12 261 -44 38 -20
65 -24 166 -28 103 -4 127 -8 158 -27 27 -17 59 -24 134 -30 76 -6 105 -12
128 -29 21 -16 50 -23 109 -27 56 -4 94 -13 127 -30 27 -13 76 -27 110 -31 40
-4 76 -15 100 -30 24 -15 53 -24 80 -24 49 -1 111 -21 137 -44 10 -9 42 -19
72 -23 30 -3 72 -16 95 -29 22 -13 57 -24 77 -24 23 0 53 -11 84 -30 26 -17
61 -30 79 -30 17 0 48 -11 68 -25 20 -14 55 -28 77 -31 22 -4 56 -19 77 -34
21 -15 57 -29 80 -33 24 -3 60 -16 80 -30 20 -14 51 -28 67 -32 17 -3 39 -15
50 -25 11 -10 38 -23 61 -29 22 -6 49 -20 59 -31 10 -11 26 -20 35 -20 9 0 38
-14 66 -31 27 -18 63 -36 79 -42 17 -5 44 -20 60 -32 17 -12 44 -25 62 -29 17
-4 37 -14 44 -23 7 -8 36 -26 64 -39 81 -38 246 -132 353 -201 36 -24 70 -43
74 -43 4 0 41 -24 82 -52 41 -29 89 -62 107 -73 63 -38 73 -45 165 -106 12 -8
64 -46 115 -85 52 -39 104 -76 117 -83 16 -8 22 -20 20 -34 -3 -21 -11 -23
-133 -34 -71 -6 -141 -12 -154 -12 -20 -1 -21 -3 -11 -16 11 -13 8 -15 -13
-15 -33 0 -225 -33 -346 -59 -52 -12 -97 -21 -99 -21 -2 0 -2 -7 2 -15 3 -9 0
-15 -9 -15 -8 0 -15 -7 -15 -15 0 -8 -7 -15 -15 -15 -8 0 -15 -4 -15 -10 0 -5
7 -10 15 -10 24 0 20 -61 -5 -67 -11 -3 -20 -11 -20 -18 0 -7 -5 -15 -12 -17
-7 -3 -11 -20 -10 -45 3 -39 1 -42 -28 -48 -16 -4 -30 -13 -30 -21 0 -8 -6
-14 -13 -14 -7 0 -20 -9 -29 -19 -9 -10 -24 -24 -34 -31 -14 -8 -15 -13 -6
-16 15 -7 16 -40 2 -49 -6 -4 -8 -11 -5 -16 4 -5 -1 -9 -10 -9 -9 0 -18 -12
-21 -30 -5 -21 -12 -30 -26 -30 -24 0 -74 -49 -88 -84 -5 -15 -21 -31 -35 -36
-14 -5 -25 -14 -25 -19 0 -6 -7 -8 -16 -4 -10 4 -17 -2 -21 -16 -3 -14 -11
-20 -20 -17 -7 3 -16 -1 -20 -10 -5 -13 -31 -29 -63 -39 -21 -6 -60 -30 -60
-36 0 -4 -10 -9 -22 -12 -13 -4 -32 -22 -42 -42 -11 -19 -25 -35 -31 -35 -7 0
-79 38 -161 85 -158 91 -456 245 -473 245 -11 0 -59 -30 -144 -91 -56 -40 -59
-41 -127 -37 -52 3 -75 9 -92 24 -13 13 -44 24 -72 28 -28 3 -59 15 -70 25
-12 10 -41 22 -66 26 -24 4 -60 18 -80 30 -19 13 -57 26 -85 30 -27 3 -66 17
-85 30 -20 13 -58 25 -89 29 -35 3 -68 15 -95 33 -32 22 -56 29 -113 33 -62 5
-76 10 -97 33 -23 25 -31 27 -106 27 -68 0 -87 4 -112 22 -24 17 -51 22 -132
28 -78 5 -111 12 -146 30 -38 20 -65 25 -180 30 -112 5 -142 10 -175 28 -34
19 -56 22 -165 23 -69 0 -177 4 -240 9 -356 26 -437 34 -462 46 -32 16 -90 18
-104 4 -19 -19 -178 -31 -724 -57 -97 -4 -149 -11 -184 -25 -31 -12 -95 -22
-170 -28 -84 -6 -143 -17 -191 -34 -38 -13 -107 -27 -152 -31 -55 -5 -91 -13
-105 -25 -16 -11 -49 -19 -102 -23 -59 -4 -87 -11 -109 -27 -19 -14 -54 -25
-98 -31 -45 -5 -86 -18 -116 -36 -25 -15 -70 -30 -99 -34 -29 -4 -65 -17 -81
-28 -16 -12 -51 -25 -79 -30 -28 -4 -72 -20 -99 -34 -26 -15 -61 -27 -77 -27
-18 0 -43 -11 -60 -25 -20 -17 -42 -25 -68 -25 -27 0 -47 -7 -65 -24 -15 -14
-41 -28 -58 -32 -18 -3 -51 -19 -75 -35 -24 -16 -53 -29 -65 -29 -12 0 -42
-14 -66 -30 -24 -17 -50 -30 -57 -30 -8 0 -36 -13 -62 -30 -27 -16 -56 -30
-65 -30 -8 0 -28 -11 -44 -23 -15 -13 -41 -27 -57 -31 -17 -4 -45 -21 -63 -37
-19 -16 -39 -29 -45 -29 -6 0 -26 -11 -44 -25 -18 -14 -36 -25 -40 -25 -4 0
-21 -11 -38 -24 -17 -13 -41 -26 -53 -30 -13 -4 -41 -23 -64 -42 -22 -19 -49
-34 -59 -34 -11 0 -31 -11 -46 -25 -15 -14 -32 -25 -39 -25 -7 0 -23 -10 -37
-22 -14 -13 -51 -39 -83 -58 -31 -19 -68 -45 -80 -56 -13 -12 -58 -45 -102
-74 -43 -28 -82 -58 -86 -66 -4 -8 -13 -14 -18 -14 -6 0 -23 -12 -38 -27 -15
-16 -47 -43 -72 -61 -103 -77 -128 -97 -214 -175 -120 -109 -542 -531 -634
-633 -40 -45 -93 -110 -118 -145 -26 -35 -52 -68 -59 -74 -24 -20 -111 -131
-149 -190 -21 -33 -66 -94 -101 -136 -35 -43 -64 -83 -64 -91 0 -8 -9 -23 -19
-33 -11 -9 -28 -34 -39 -54 -38 -73 -76 -137 -99 -164 -13 -16 -23 -33 -23
-38 0 -6 -21 -42 -47 -80 -27 -39 -57 -87 -68 -108 -11 -20 -28 -48 -37 -61
-10 -14 -18 -32 -18 -41 0 -9 -8 -27 -18 -40 -10 -13 -29 -50 -41 -81 -13 -32
-29 -62 -36 -68 -7 -6 -16 -23 -20 -38 -3 -15 -16 -43 -29 -62 -13 -19 -29
-53 -36 -75 -7 -22 -23 -50 -35 -62 -13 -12 -26 -40 -30 -62 -3 -21 -15 -47
-26 -57 -12 -11 -19 -30 -19 -54 0 -21 -12 -59 -29 -91 -16 -30 -32 -70 -36
-89 -4 -19 -15 -46 -25 -60 -9 -14 -19 -45 -22 -70 -3 -26 -19 -67 -37 -98
-21 -32 -36 -73 -40 -107 -5 -33 -16 -64 -28 -78 -14 -15 -23 -43 -28 -87 -4
-36 -16 -79 -27 -97 -12 -20 -21 -59 -25 -105 -3 -42 -16 -95 -28 -124 -14
-31 -25 -84 -30 -135 -4 -50 -15 -102 -28 -129 -15 -33 -22 -76 -27 -165 -5
-93 -14 -142 -37 -215 -30 -93 -31 -100 -38 -369 -4 -174 -12 -308 -22 -365
-24 -134 -28 -322 -9 -396 21 -82 35 -247 40 -465 3 -170 5 -184 31 -245 24
-56 29 -84 34 -200 6 -112 11 -142 29 -177 16 -31 24 -69 29 -135 4 -59 13
-103 24 -123 20 -35 26 -65 34 -154 4 -41 13 -74 26 -93 14 -19 21 -44 20 -76
0 -52 16 -112 29 -112 16 0 31 -38 41 -102 6 -34 20 -75 32 -92 12 -17 24 -54
28 -87 4 -33 16 -70 27 -87 12 -16 26 -50 32 -76 6 -26 17 -57 25 -69 7 -12
19 -44 26 -72 7 -27 20 -62 31 -77 10 -14 21 -41 24 -60 4 -18 17 -44 29 -58
12 -14 26 -42 29 -62 4 -21 10 -38 14 -38 4 0 21 -26 36 -57 16 -32 33 -65 38
-73 4 -8 13 -26 19 -40 35 -78 103 -211 110 -215 4 -3 13 -21 19 -41 7 -20 20
-44 29 -54 9 -10 30 -41 46 -69 17 -29 49 -81 73 -117 23 -35 42 -67 42 -71 0
-4 25 -45 57 -92 31 -47 68 -104 82 -126 14 -22 31 -43 38 -47 6 -5 36 -45 67
-90 82 -121 119 -171 141 -193 12 -12 47 -54 80 -95 127 -161 175 -213 409
-449 234 -237 420 -409 542 -501 32 -24 80 -63 107 -86 26 -23 71 -58 100 -78
28 -20 70 -49 92 -65 116 -87 308 -214 352 -235 17 -8 36 -23 42 -34 6 -11 23
-23 38 -27 16 -3 35 -13 43 -20 8 -7 56 -35 105 -61 50 -26 101 -55 114 -65
13 -11 29 -19 35 -19 6 0 28 -11 49 -26 21 -14 56 -32 78 -39 23 -8 54 -26 71
-40 16 -14 36 -25 44 -25 8 0 32 -11 52 -25 20 -14 44 -25 53 -25 9 0 43 -13
74 -30 31 -16 64 -30 72 -30 8 0 29 -10 45 -22 17 -11 50 -25 75 -29 24 -5 58
-18 74 -30 17 -12 57 -29 91 -39 33 -11 69 -27 79 -36 11 -10 44 -21 73 -25
30 -4 67 -16 83 -27 15 -11 50 -23 77 -26 27 -3 64 -15 83 -27 19 -12 64 -25
104 -30 42 -5 86 -18 106 -30 21 -13 62 -24 107 -30 41 -4 102 -20 137 -35 42
-17 94 -30 150 -35 58 -5 98 -15 122 -29 28 -17 59 -23 144 -27 69 -4 136 -14
187 -29 55 -17 105 -24 161 -24 109 0 329 -18 440 -36 142 -22 574 -19 758 6
81 11 222 22 314 26 125 4 192 12 263 29 52 12 139 25 192 29 70 4 109 11 138
26 24 12 70 23 117 27 43 3 107 17 143 31 36 13 94 28 130 33 36 4 90 19 120
33 41 19 71 26 121 26 77 0 104 -16 145 -86 30 -52 15 -53 218 16 l140 48 30
-29 c17 -16 36 -29 42 -29 6 0 17 -7 24 -15 7 -9 19 -14 26 -11 8 3 15 -6 19
-24 5 -24 13 -30 46 -35 21 -4 39 -11 39 -16 0 -5 11 -9 25 -9 16 0 25 -6 25
-15 0 -8 6 -15 14 -15 9 0 17 -15 21 -38 5 -34 11 -40 48 -54 33 -12 43 -20
45 -41 2 -15 10 -27 18 -27 8 0 14 -7 14 -15 0 -8 9 -15 20 -15 11 0 23 -7 26
-15 4 -8 12 -15 20 -15 7 0 16 -16 19 -37 8 -50 47 -133 63 -133 6 0 12 -5 12
-10 0 -6 14 -24 30 -42 17 -17 31 -37 31 -44 2 -17 3 -21 18 -62 9 -20 20 -32
32 -32 16 0 19 -8 19 -50 0 -32 -4 -50 -12 -50 -9 0 -9 -3 0 -12 7 -7 12 -18
12 -26 0 -20 48 -63 72 -65 10 -1 16 -7 14 -14 -6 -14 47 -41 174 -88 60 -22
84 -36 82 -47 -2 -11 21 -20 95 -38 204 -46 257 -60 266 -69 16 -16 -1 -41
-35 -56 -18 -7 -44 -22 -58 -33 -14 -11 -44 -25 -67 -31 -22 -6 -46 -18 -53
-26 -7 -8 -31 -20 -54 -27 -22 -7 -61 -25 -85 -40 -25 -15 -50 -28 -57 -28 -6
0 -35 -13 -65 -28 -30 -16 -70 -32 -89 -36 -19 -3 -51 -17 -71 -31 -20 -13
-54 -27 -75 -30 -22 -4 -52 -16 -67 -27 -16 -11 -45 -22 -65 -25 -20 -3 -59
-18 -87 -33 -27 -16 -68 -31 -90 -35 -21 -4 -59 -18 -84 -31 -25 -13 -60 -24
-77 -24 -17 0 -57 -14 -88 -31 -32 -17 -81 -33 -109 -36 -29 -3 -72 -16 -97
-28 -25 -12 -74 -25 -110 -29 -36 -4 -78 -16 -95 -26 -16 -10 -66 -23 -110
-30 -44 -6 -103 -21 -132 -32 -29 -11 -92 -23 -140 -28 -52 -4 -106 -16 -133
-28 -28 -13 -84 -24 -150 -30 -58 -6 -144 -22 -192 -36 -63 -18 -124 -27 -218
-32 -99 -5 -130 -10 -130 -20 0 -20 -1945 -21 -1957 -1 -6 9 -53 17 -153 25
-94 8 -174 20 -225 35 -44 13 -121 27 -172 31 -57 4 -117 16 -155 30 -35 13
-97 26 -140 29 -42 4 -100 15 -130 26 -29 11 -87 25 -128 31 -41 6 -92 20
-112 31 -21 10 -70 22 -110 27 -40 5 -89 19 -108 30 -19 11 -59 22 -89 25 -29
4 -72 17 -95 31 -23 13 -66 29 -97 34 -31 6 -71 20 -90 30 -19 11 -54 23 -79
27 -25 4 -63 17 -85 30 -22 13 -58 26 -80 30 -22 4 -52 15 -67 26 -15 10 -49
24 -76 30 -28 5 -65 21 -83 35 -18 13 -44 24 -58 24 -13 0 -48 13 -78 30 -29
16 -59 30 -66 30 -8 0 -38 13 -68 29 -30 15 -68 31 -85 35 -18 4 -40 16 -50
27 -9 10 -39 26 -65 33 -26 8 -57 24 -68 35 -12 12 -29 21 -40 21 -20 0 -166
73 -192 96 -8 8 -31 19 -50 26 -19 6 -48 22 -65 35 -17 12 -38 23 -46 23 -8 0
-36 13 -61 30 -26 16 -68 44 -94 60 -25 17 -52 30 -58 30 -7 0 -18 7 -26 16
-7 8 -36 27 -63 41 -28 14 -79 45 -113 69 -34 24 -66 44 -71 44 -6 0 -28 15
-50 32 -22 18 -66 49 -98 68 -31 19 -86 56 -121 82 -35 26 -76 54 -91 62 -15
8 -63 44 -107 80 -44 37 -102 81 -130 100 -41 27 -192 149 -267 216 -9 8 -31
26 -49 40 -195 150 -774 722 -942 930 -34 41 -72 86 -85 100 -14 14 -43 49
-65 79 -22 30 -55 71 -72 90 -53 59 -415 535 -415 546 0 7 -63 99 -83 120 -10
11 -38 57 -63 102 -24 45 -49 85 -54 88 -6 4 -17 23 -26 43 -8 20 -23 46 -33
57 -18 19 -83 131 -144 245 -16 30 -35 62 -42 70 -7 8 -18 32 -23 52 -6 20
-19 47 -31 59 -11 12 -23 35 -26 51 -4 15 -17 41 -30 56 -12 15 -27 44 -33 64
-5 20 -22 52 -36 71 -14 19 -26 43 -26 54 0 11 -13 40 -30 64 -16 24 -30 54
-30 65 0 12 -10 33 -21 48 -12 15 -25 45 -30 67 -5 22 -20 57 -33 77 -13 20
-27 56 -31 78 -3 23 -15 51 -25 62 -10 11 -22 37 -26 58 -3 22 -19 59 -35 83
-15 23 -31 64 -35 90 -3 25 -16 62 -29 81 -12 19 -25 57 -29 85 -5 27 -18 68
-31 90 -12 22 -25 64 -28 92 -4 31 -15 65 -28 82 -15 21 -24 51 -28 98 -4 45
-14 78 -28 98 -13 19 -23 52 -27 91 -3 39 -15 77 -33 110 -21 37 -29 68 -34
129 -4 53 -14 95 -29 124 -16 32 -24 71 -29 145 -5 56 -15 119 -25 141 -10 23
-19 79 -22 135 -3 56 -16 132 -31 184 -19 67 -27 127 -33 245 -5 86 -9 157 -9
159 -1 2 -5 0 -11 -3 -7 -4 -10 311 -10 939 0 737 3 945 12 948 9 3 14 51 19
159 5 123 11 167 29 219 14 40 26 105 31 170 4 58 16 130 27 160 10 30 22 92
26 137 4 48 15 102 27 130 12 26 25 84 30 128 7 53 19 100 39 141 21 41 30 76
30 110 1 34 10 67 30 109 17 33 30 75 30 95 0 19 11 58 25 85 13 28 25 61 25
75 0 14 13 52 30 85 16 33 30 76 30 95 0 19 11 55 24 80 13 25 29 65 36 90 6
25 22 63 34 85 13 22 26 56 29 76 3 19 17 53 31 74 14 21 26 47 26 59 0 12 11
41 24 66 13 25 27 56 31 70 8 29 54 129 96 211 16 31 29 64 29 72 0 9 11 28
24 44 14 16 28 43 32 59 3 16 17 43 29 59 12 17 27 47 34 67 7 20 20 47 30 60
10 13 22 34 26 48 4 14 18 43 32 65 32 52 110 188 140 245 13 24 32 54 43 65
11 12 20 26 20 31 0 10 52 96 87 144 10 14 28 44 39 67 12 23 37 61 57 85 19
24 40 54 47 68 7 14 39 60 72 103 32 43 58 80 58 83 0 8 81 117 115 154 17 19
53 66 79 103 27 38 77 103 113 145 36 42 110 133 166 202 59 72 239 262 427
450 343 342 432 426 570 535 47 37 115 94 152 127 37 32 92 76 121 96 69 47
129 93 142 107 13 15 116 90 135 98 8 4 35 23 60 42 25 19 65 48 89 63 24 15
56 37 71 50 15 12 32 22 36 22 5 0 22 11 38 25 16 14 34 25 41 25 7 0 32 15
56 32 72 54 143 98 155 98 6 0 17 6 23 14 7 8 35 26 64 40 29 14 84 46 122 71
39 24 75 44 82 45 6 0 24 11 40 23 15 13 42 29 60 35 17 6 41 20 52 31 11 11
33 24 48 27 16 4 47 20 70 36 23 15 50 28 61 28 11 0 36 11 56 25 20 14 49 28
64 31 15 4 50 20 78 36 28 15 59 28 68 28 10 0 31 9 47 21 16 11 46 25 66 31
20 5 52 20 72 33 20 13 52 26 71 30 19 4 53 17 75 30 22 12 56 26 75 30 19 4
49 15 65 25 17 10 53 24 80 31 28 6 68 22 90 34 22 13 59 25 82 29 23 3 63 17
89 31 26 14 61 25 78 25 17 0 52 11 78 25 25 13 73 28 105 31 32 4 79 18 105
31 26 14 78 29 116 33 38 5 85 18 103 29 21 12 67 24 119 30 47 5 107 19 133
31 28 13 86 25 135 30 48 5 110 18 138 29 31 12 89 22 150 26 54 4 124 15 154
25 72 24 152 37 272 46 56 3 105 12 115 20 15 11 188 13 981 14 843 0 965 -2
978 -15z m-2334 -4019 c511 -133 1025 -620 1196 -1131 56 -169 76 -362 51
-500 -6 -33 -12 -97 -13 -141 -2 -45 -6 -87 -10 -93 -4 -6 -5 -14 -2 -19 2 -4
1 -41 -4 -82 -5 -41 -11 -104 -15 -140 -11 -104 -8 -430 5 -490 6 -30 14 -71
17 -90 4 -29 20 -99 49 -205 3 -11 8 -40 11 -65 3 -25 9 -49 13 -55 5 -5 11
-30 15 -55 3 -25 8 -61 11 -80 3 -19 7 -66 9 -105 2 -38 8 -124 12 -190 22
-335 -7 -523 -119 -765 -63 -135 -74 -173 -93 -325 -3 -22 -10 -65 -15 -95 -9
-53 -18 -141 -22 -225 -3 -56 11 -231 23 -283 5 -24 7 -48 4 -53 -4 -5 0 -23
9 -39 8 -17 18 -56 22 -88 5 -31 9 -59 9 -62 1 -3 5 -36 9 -75 12 -107 13
-114 30 -209 21 -114 21 -363 1 -499 -20 -136 -58 -287 -108 -426 -40 -115
-160 -366 -217 -453 -26 -42 -34 -48 -65 -48 -33 0 -35 2 -35 32 0 24 12 44
54 88 97 101 149 236 150 385 1 97 -12 146 -52 212 -26 41 -28 42 -72 38 -25
-2 -88 -6 -140 -10 -52 -4 -104 -13 -115 -20 -11 -8 -44 -15 -73 -18 -29 -3
-58 -9 -65 -15 -6 -6 -38 -18 -69 -27 -32 -9 -58 -21 -58 -26 0 -5 -11 -14
-25 -19 -14 -5 -28 -17 -31 -25 -4 -8 -11 -15 -17 -15 -11 0 -82 -45 -105 -67
-7 -7 -20 -13 -27 -13 -26 0 -65 -46 -65 -76 0 -69 33 -234 65 -332 71 -213
229 -490 415 -732 105 -136 328 -355 428 -421 75 -49 82 -57 82 -86 0 -31 -2
-33 -34 -33 -18 0 -44 8 -57 19 -13 10 -64 37 -114 60 -79 37 -103 55 -198
149 -273 270 -446 524 -737 1087 -51 99 -94 181 -95 183 -1 1 -23 -7 -49 -18
-26 -11 -69 -20 -95 -20 l-48 0 -6 -81 c-15 -190 -124 -391 -284 -524 -108
-89 -302 -175 -395 -175 -25 0 -28 4 -28 33 l0 34 79 17 c94 20 191 66 225
106 41 50 103 172 115 228 6 29 11 115 11 191 l0 139 -33 29 c-24 21 -53 33
-98 42 -35 7 -80 16 -99 21 -40 11 -113 19 -249 27 -93 5 -231 -11 -231 -28 0
-4 -15 -10 -32 -14 -52 -11 -98 -28 -98 -38 0 -12 -20 -29 -52 -46 -16 -8 -28
-18 -28 -22 0 -4 -11 -10 -24 -13 -14 -3 -28 -15 -31 -26 -3 -11 -14 -20 -24
-20 -18 0 -34 -36 -46 -104 -5 -30 -12 -41 -36 -49 -16 -6 -29 -15 -29 -19 0
-4 -7 -8 -15 -8 -11 0 -15 -12 -15 -51 0 -46 6 -61 66 -152 227 -347 570 -714
857 -917 102 -72 216 -127 487 -235 259 -103 331 -136 420 -193 35 -23 50 -37
40 -39 -8 -3 -30 -12 -49 -20 -31 -14 -36 -14 -70 5 -48 26 -117 47 -221 67
-131 25 -184 43 -322 106 -334 151 -674 372 -974 631 -133 115 -202 191 -279
308 -35 52 -75 106 -90 119 l-28 23 5 -26 c7 -34 -18 -35 -26 -1 -12 48 -24
24 -30 -62 -4 -49 -9 -119 -12 -156 -9 -115 29 -249 144 -503 106 -233 215
-396 372 -555 205 -207 458 -368 830 -525 124 -53 125 -53 128 -88 3 -35 2
-36 -31 -36 -27 0 -62 18 -147 75 -66 44 -251 145 -449 245 -388 195 -514 274
-646 403 -182 179 -336 469 -464 872 -112 351 -118 424 -52 676 66 253 62 282
-71 501 -74 120 -113 220 -162 412 -57 222 -144 636 -157 746 -17 149 -6 432
21 590 19 105 21 129 10 159 -11 30 -14 47 -19 110 -1 8 -7 11 -17 7 -8 -3
-13 -2 -10 2 3 5 -2 21 -10 36 -7 16 -14 36 -14 46 0 10 -6 20 -13 23 -7 3
-19 28 -27 56 -11 43 -17 51 -34 49 -18 -3 -21 3 -23 34 -1 21 -7 47 -13 58
-11 21 -30 27 -30 10 0 -7 -6 -7 -20 0 -11 6 -20 15 -20 21 0 6 -7 17 -15 25
-8 9 -15 26 -15 39 0 30 -36 115 -49 115 -31 0 -177 -274 -226 -424 -82 -256
-95 -529 -34 -764 28 -107 68 -189 158 -322 82 -121 135 -210 146 -247 6 -22
4 -23 -44 -23 l-50 0 -39 83 c-21 45 -76 143 -122 217 -96 156 -128 222 -163
340 -90 302 -102 674 -31 1028 89 447 248 674 635 903 36 22 71 50 78 62 7 12
25 31 41 42 16 10 26 23 24 27 -3 5 26 39 65 77 39 37 71 73 71 78 0 6 13 25
29 42 17 18 28 38 24 47 -3 8 1 14 11 14 9 0 16 7 16 15 0 8 4 15 9 15 5 0 14
14 21 30 7 17 26 41 41 55 16 13 29 29 29 35 0 6 7 13 15 16 8 4 15 16 15 28
0 11 7 30 15 40 10 14 15 45 15 101 0 196 45 474 102 632 46 127 171 369 261
506 277 418 628 718 989 845 88 32 226 62 280 62 27 0 29 -3 26 -32 -3 -31 -5
-32 -83 -49 -495 -107 -895 -573 -1046 -1217 -23 -101 -24 -108 -4 -92 8 6 19
9 25 5 5 -3 10 0 10 8 0 15 34 31 58 28 6 -1 12 5 12 14 0 17 17 20 22 4 5
-14 98 -3 98 12 0 5 16 9 36 9 21 0 33 -4 29 -10 -3 -5 -1 -10 4 -10 6 0 11 7
11 16 0 14 9 16 50 12 l51 -5 40 68 c140 240 408 489 612 570 96 38 107 37
107 -4 0 -32 -2 -34 -69 -55 -206 -67 -344 -237 -380 -471 -9 -60 -9 -76 4
-101 8 -16 15 -40 15 -53 0 -32 26 -53 78 -62 24 -4 46 -13 49 -21 3 -9 20
-14 43 -14 23 0 48 -8 65 -21 24 -19 91 -40 135 -41 8 -1 18 -5 21 -10 3 -4
32 -13 65 -19 32 -6 73 -15 89 -21 17 -5 78 -12 136 -15 93 -5 120 -2 218 22
61 15 111 31 111 35 0 10 83 53 133 69 20 7 37 17 37 22 0 5 9 9 19 9 11 0 33
11 49 25 17 14 35 25 41 25 6 0 31 18 55 40 24 22 49 40 55 40 7 0 17 13 22
29 6 17 22 34 40 41 16 7 29 15 29 19 0 3 16 24 35 46 19 22 35 46 35 53 0 7
7 15 15 18 8 4 15 12 15 19 0 6 9 20 20 30 11 10 22 27 26 38 4 12 22 37 40
56 66 70 131 372 120 555 -15 246 -84 386 -288 581 -187 180 -302 244 -516
289 -117 25 -205 56 -219 79 -10 17 131 1 239 -27z m-1542 -1841 c0 -8 -4 -15
-10 -15 -5 0 -10 7 -10 15 0 8 5 15 10 15 6 0 10 -7 10 -15z m3730 -405 c0 -5
-5 -10 -11 -10 -5 0 -7 5 -4 10 3 6 8 10 11 10 2 0 4 -4 4 -10z m325 1 c3 -5
18 -12 34 -16 39 -8 60 -33 40 -46 -8 -5 -27 -9 -42 -9 -25 0 -27 -2 -13 -15
19 -19 46 -19 46 0 0 13 3 13 20 3 11 -7 20 -18 20 -25 0 -7 5 -13 12 -13 15
0 98 -91 98 -107 0 -7 6 -13 14 -13 8 0 17 -7 20 -16 10 -25 7 -54 -5 -54 -7
0 -10 -17 -7 -45 2 -29 -1 -45 -8 -45 -7 0 -14 -16 -16 -35 -3 -24 0 -35 9
-35 7 0 13 -7 13 -15 0 -8 -3 -15 -8 -15 -4 0 -15 -12 -24 -27 l-17 -28 -1 30
c-1 25 -2 27 -11 13 -15 -27 -29 -21 -29 12 0 22 -4 28 -15 24 -15 -6 -22 -24
-27 -73 -3 -25 -41 -71 -58 -71 -6 0 -10 -4 -10 -10 0 -5 -6 -10 -14 -10 -9 0
-12 -8 -9 -24 4 -21 1 -24 -34 -27 -60 -6 -83 0 -83 22 0 10 -7 19 -15 19 -8
0 -15 -6 -15 -14 0 -8 -8 -17 -17 -19 -11 -3 -7 -5 10 -6 15 0 27 -6 27 -11 0
-20 -29 -68 -45 -74 -8 -3 -20 -16 -26 -30 -6 -13 -20 -27 -30 -29 -13 -3 -19
-14 -19 -31 0 -24 -4 -26 -40 -26 -36 0 -40 -2 -40 -25 0 -18 -5 -25 -20 -25
-15 0 -20 -7 -21 -27 0 -16 -3 -22 -6 -15 -2 6 -13 12 -24 12 -18 0 -19 -8
-19 -110 0 -103 -1 -110 -20 -110 -13 0 -20 -7 -20 -20 0 -13 -7 -20 -20 -20
-13 0 -20 -7 -20 -20 0 -11 5 -20 10 -20 6 0 10 -27 10 -60 0 -33 4 -60 10
-60 6 0 10 -22 10 -50 0 -38 -4 -50 -15 -50 -8 0 -15 -4 -15 -10 0 -5 -9 -10
-20 -10 -15 0 -20 -7 -20 -25 0 -20 -5 -25 -25 -25 -21 0 -25 -5 -25 -30 0
-23 -4 -30 -20 -30 -11 0 -20 -4 -20 -10 0 -5 -9 -10 -20 -10 -17 0 -20 -7
-22 -47 l-2 -48 -3 48 c-3 33 -8 47 -19 47 -7 0 -14 5 -14 10 0 6 -4 10 -10
10 -16 0 -12 -27 5 -34 9 -3 15 -17 14 -38 -1 -18 -3 -25 -6 -15 -3 13 -15 17
-49 17 -50 0 -54 -10 -32 -81 6 -22 8 -42 3 -47 -4 -4 -10 -1 -12 6 -3 6 -11
12 -19 12 -10 0 -13 -7 -8 -25 8 -32 -14 -55 -43 -44 -22 8 -46 83 -80 246
-26 124 -23 441 4 558 31 130 54 186 81 196 20 8 23 5 29 -21 8 -41 16 -44 47
-15 33 31 34 31 28 0 -2 -14 1 -32 8 -40 9 -10 10 -31 6 -65 -6 -45 -5 -50 12
-50 14 0 19 7 19 30 0 17 -4 30 -9 30 -4 0 -8 9 -8 20 0 11 5 20 10 20 6 0 10
16 10 35 0 39 6 43 26 18 18 -24 17 -41 -1 -59 -17 -17 -20 -54 -5 -54 6 0 10
5 10 11 0 14 25 39 39 39 6 0 11 7 11 15 0 11 12 15 46 15 l45 0 -4 40 c-3 34
-1 40 15 40 18 0 18 11 16 229 l-3 230 31 6 31 5 5 82 c4 64 9 84 24 96 13 10
15 16 7 19 -7 3 -13 16 -13 29 0 19 5 24 24 24 27 0 37 18 29 49 -3 11 2 27
10 36 17 17 77 21 77 5 0 -5 7 -10 15 -10 10 0 15 10 15 30 0 29 2 30 45 30
43 0 45 -1 45 -30 0 -28 2 -30 40 -30 36 0 40 3 40 25 0 18 4 23 15 19 9 -4
15 0 15 10 0 17 25 22 35 7z m-355 -46 c0 -8 -7 -15 -15 -15 -16 0 -20 12 -8
23 11 12 23 8 23 -8z m2510 -755 c0 -5 -16 -10 -35 -10 -19 0 -35 5 -35 10 0
6 16 10 35 10 19 0 35 -4 35 -10z m154 -52 c3 -13 6 -38 6 -55 0 -26 4 -33 20
-33 15 0 20 7 20 26 0 21 4 25 23 22 17 -2 23 -11 27 -38 4 -27 10 -36 28 -38
16 -3 22 -10 22 -28 0 -22 4 -24 45 -24 48 0 65 -16 65 -64 0 -19 5 -26 19
-26 35 0 50 -11 61 -46 6 -19 18 -34 26 -34 8 0 14 -9 14 -20 0 -11 -7 -20
-15 -20 -8 0 -15 -9 -15 -20 0 -15 7 -20 28 -20 23 0 30 -6 39 -32 17 -48 28
-238 15 -238 -6 0 -16 -18 -22 -40 -6 -22 -15 -40 -19 -40 -5 0 -15 -15 -22
-32 l-13 -33 -4 38 c-3 32 -7 37 -28 37 -22 0 -24 -4 -24 -44 l0 -44 -85 6
-85 5 0 -37 0 -36 -40 6 c-33 5 -40 4 -40 -10 0 -9 -8 -16 -20 -16 -15 0 -20
7 -20 25 0 18 -5 25 -20 25 -13 0 -20 -7 -20 -20 0 -13 -7 -20 -20 -20 -14 0
-27 15 -45 50 -27 53 -35 57 -75 37 -14 -6 -42 -11 -62 -9 -33 3 -38 7 -38 28
0 14 -7 27 -17 31 -26 10 -33 23 -33 71 l0 42 -50 0 -50 0 0 125 c0 77 4 125
10 125 6 0 10 18 10 40 0 39 1 40 34 40 31 0 34 3 40 38 11 71 7 130 -10 134
-13 3 -13 5 0 23 15 20 15 20 16 -2 0 -16 6 -23 20 -23 17 0 20 7 20 40 0 33
3 40 20 40 15 0 20 7 20 25 l0 25 105 0 105 0 0 30 c0 36 25 41 34 8z m-3004
-28 c0 -5 -4 -10 -10 -10 -5 0 -10 5 -10 10 0 6 5 10 10 10 6 0 10 -4 10 -10z
m3420 -302 c0 -4 -7 -8 -15 -8 -10 0 -15 10 -15 28 1 26 1 26 15 8 8 -11 15
-23 15 -28z m-740 -468 c0 -35 3 -40 23 -41 12 0 16 -3 9 -6 -20 -8 -72 20
-72 39 0 10 -4 18 -10 18 -5 0 -10 7 -10 15 0 10 10 15 30 15 28 0 30 -2 30
-40z m-2430 -95 c0 -8 -9 -15 -20 -15 -11 0 -20 7 -20 15 0 8 9 15 20 15 11 0
20 -7 20 -15z m590 -541 c0 -8 10 -14 23 -15 l22 0 -22 -9 c-45 -18 -14 -60
38 -52 20 3 29 10 29 23 0 22 25 26 37 5 4 -7 15 -16 23 -19 10 -4 7 -6 -7 -6
-28 -1 -30 -21 -3 -28 11 -3 21 -13 21 -22 1 -15 2 -15 6 0 4 17 58 34 74 23
5 -3 9 -15 9 -27 0 -25 41 -58 48 -38 2 6 19 11 37 11 18 0 35 5 37 12 3 8 9
8 24 0 18 -11 18 -11 -3 -12 -19 0 -23 -6 -23 -29 0 -21 6 -32 20 -36 11 -3
20 -11 20 -16 0 -15 48 -10 52 6 2 11 7 12 18 4 11 -8 12 -12 3 -16 -7 -2 -13
-11 -13 -19 0 -8 -7 -17 -15 -20 -8 -4 -15 -12 -15 -19 0 -18 32 -27 64 -19
21 5 27 2 34 -17 8 -21 -3 -28 -207 -130 -119 -59 -265 -140 -326 -180 -105
-71 -258 -209 -303 -275 l-21 -31 132 -6 c226 -11 394 -67 500 -165 45 -42
167 -213 167 -234 0 -4 -6 -8 -12 -9 -7 0 -4 -4 8 -9 20 -8 50 -87 38 -100 -3
-3 -48 -4 -100 -4 -86 1 -94 0 -94 -17 0 -11 -7 -19 -15 -19 -8 0 -15 9 -15
20 0 13 -7 20 -20 20 -11 0 -20 5 -20 10 0 6 -9 10 -20 10 -14 0 -20 -7 -20
-21 0 -19 -4 -21 -35 -16 -19 3 -42 13 -51 21 -8 9 -20 16 -25 16 -5 0 -9 11
-9 24 0 22 -16 36 -41 36 -5 0 -9 -12 -9 -26 0 -22 -2 -24 -15 -14 -8 6 -18 9
-24 6 -5 -4 -16 0 -23 8 -8 7 -24 17 -36 20 -15 5 -22 15 -22 32 0 19 -5 24
-24 24 -13 0 -26 -5 -28 -12 -3 -9 -13 -9 -38 -2 -30 8 -36 15 -43 52 -9 47
-37 60 -37 17 0 -23 -2 -24 -25 -13 -14 6 -25 19 -25 28 0 10 -7 31 -15 46
-14 27 -15 28 -15 6 0 -38 -42 -25 -52 15 -5 18 -17 38 -29 46 -26 19 -39 87
-15 87 9 0 16 8 16 20 0 11 -4 20 -10 20 -5 0 -10 20 -10 45 l0 46 -35 -7
c-33 -6 -35 -5 -35 22 0 64 12 104 31 104 14 0 19 11 24 48 3 26 10 65 15 87
11 51 1 155 -15 155 -16 0 12 112 31 123 8 4 14 15 14 22 0 8 9 15 20 15 15 0
20 7 20 25 0 14 -4 25 -9 25 -14 0 -24 102 -16 165 6 50 9 55 31 55 22 0 24
-4 24 -52 0 -90 18 -40 26 70 l7 103 148 -2 c121 0 149 -3 149 -15z m530 -514
c0 -5 -8 -10 -17 -10 -15 0 -16 2 -3 10 19 12 20 12 20 0z m-12 -58 c24 -4 47
-46 55 -102 3 -19 9 -50 13 -67 5 -27 3 -33 -10 -33 -17 0 -20 -9 -10 -34 9
-23 24 -20 24 4 0 11 5 20 10 20 6 0 10 -11 10 -25 0 -14 7 -28 15 -31 21 -8
19 -21 -4 -29 -13 -4 -17 -12 -14 -25 3 -11 9 -18 13 -15 10 6 20 -20 20 -55
0 -16 -7 -30 -15 -34 -8 -3 -15 -15 -15 -26 0 -15 -7 -20 -26 -20 -21 0 -25
-4 -22 -22 2 -15 11 -24 26 -26 21 -3 22 -8 22 -92 0 -97 5 -120 26 -120 8 0
14 -5 14 -11 0 -12 -3 -11 -110 62 -196 133 -533 428 -528 461 2 15 62 51 238
144 222 116 235 122 240 101 4 -13 15 -23 28 -25z m-605 -859 c-7 -2 -21 -2
-30 0 -10 3 -4 5 12 5 17 0 24 -2 18 -5z"/>
<path d="M8200 11710 c-14 -5 -45 -14 -70 -21 -89 -25 -146 -58 -212 -123 -38
-36 -68 -70 -68 -76 0 -5 -9 -15 -20 -22 -11 -7 -20 -21 -20 -30 0 -10 -4 -18
-8 -18 -28 0 -50 -306 -24 -331 6 -7 12 -23 12 -36 0 -13 4 -23 9 -23 5 0 12
-15 15 -32 3 -18 20 -49 36 -68 16 -19 30 -39 30 -44 0 -4 23 -31 50 -58 28
-27 50 -53 50 -56 0 -10 67 -62 79 -62 6 0 15 -9 21 -20 6 -11 25 -27 42 -36
17 -9 40 -25 51 -35 12 -10 32 -19 45 -19 13 0 37 -9 53 -21 26 -18 45 -21
173 -22 148 -1 164 2 256 54 8 4 35 18 59 30 25 12 52 30 61 39 9 9 24 19 33
23 10 4 22 18 27 32 5 14 14 25 20 25 5 0 10 7 10 15 0 8 7 15 15 15 9 0 15 9
15 25 0 14 8 33 19 44 23 23 35 114 35 277 1 100 -2 125 -16 140 -9 11 -24 39
-33 64 -23 62 -42 96 -71 125 -13 13 -24 29 -24 35 0 14 -55 70 -68 70 -5 0
-20 10 -34 23 -96 88 -225 128 -413 126 -60 -1 -121 -5 -135 -9z"/>
<path d="M6950 10054 c-93 -29 -120 -39 -120 -45 0 -4 -16 -10 -35 -13 -26 -5
-35 -12 -35 -26 0 -15 -7 -20 -26 -20 -14 0 -40 -6 -57 -14 -18 -8 -41 -16
-52 -18 -11 -2 -21 -12 -23 -24 -2 -11 -17 -29 -35 -39 -40 -24 -57 -40 -57
-55 0 -8 -10 -10 -25 -8 -14 3 -25 2 -25 -3 0 -5 -9 -16 -19 -26 -21 -20 -52
-153 -71 -308 -14 -114 -14 -411 0 -535 12 -113 43 -274 72 -385 l21 -80 14
58 c7 32 20 65 28 73 8 9 15 20 15 25 0 5 7 9 15 9 9 0 15 9 15 21 0 17 3 19
14 10 11 -10 16 -9 24 4 5 10 17 15 28 13 10 -2 28 4 38 14 11 10 28 18 38 18
10 0 18 8 19 18 0 10 3 12 6 5 2 -7 12 -13 20 -13 10 0 13 6 9 16 -4 12 -2 15
9 10 8 -3 15 -1 15 4 0 5 17 14 38 19 20 6 43 20 50 31 7 11 17 18 22 15 6 -3
10 -1 10 4 0 6 13 11 29 11 20 0 34 8 45 25 9 14 25 25 34 25 10 0 27 8 38 19
11 10 30 22 42 25 11 4 35 20 51 35 17 16 41 31 53 35 13 3 43 24 67 46 24 22
52 42 63 46 10 3 37 23 59 45 22 21 44 39 49 39 5 0 24 18 41 40 18 22 37 40
43 40 5 0 26 17 47 38 20 20 51 50 68 66 17 16 31 38 31 48 0 10 6 18 14 18
16 0 46 42 46 65 0 8 4 15 10 15 21 0 60 130 60 204 0 52 -16 102 -36 110 -8
3 -14 13 -14 23 -1 22 -25 55 -33 46 -4 -3 -7 2 -7 13 0 23 -41 50 -89 57 -19
3 -37 10 -40 15 -8 11 -93 52 -109 52 -6 0 -21 -19 -33 -42 -131 -258 -401
-418 -704 -418 l-73 0 -16 47 c-9 26 -16 50 -16 54 0 3 55 9 123 11 170 6 237
39 289 143 12 22 32 53 45 69 31 37 68 111 78 154 l7 32 -94 -1 c-51 0 -100
-3 -108 -5z"/>
<path d="M11208 12493 c7 -3 16 -2 19 1 4 3 -2 6 -13 5 -11 0 -14 -3 -6 -6z"/>
<path d="M10850 12415 c0 -29 3 -30 24 -9 22 21 20 34 -4 34 -15 0 -20 -7 -20
-25z"/>
<path d="M11253 12387 c15 -6 27 -17 27 -24 0 -7 12 -16 26 -19 14 -4 29 -16
34 -28 8 -19 9 -19 9 7 1 22 -3 27 -24 27 -20 0 -25 5 -25 25 0 22 -4 25 -37
24 -38 -1 -38 -1 -10 -12z"/>
<path d="M10804 12335 c-6 -15 2 -35 15 -35 5 0 9 11 9 25 0 27 -15 34 -24 10z"/>
<path d="M11200 11975 c0 -15 -6 -25 -14 -25 -8 0 -21 -6 -28 -14 -8 -8 -23
-16 -34 -19 -10 -2 -2 -5 19 -6 27 -1 37 3 37 14 0 8 9 15 20 15 16 0 20 7 20
30 0 17 -4 30 -10 30 -5 0 -10 -11 -10 -25z"/>
<path d="M10802 11875 c0 -16 2 -22 5 -12 2 9 2 23 0 30 -3 6 -5 -1 -5 -18z"/>
<path d="M10360 11585 c0 -8 7 -15 15 -15 8 0 15 7 15 15 0 8 -7 15 -15 15 -8
0 -15 -7 -15 -15z"/>
<path d="M10360 11510 c0 -5 5 -10 10 -10 6 0 10 5 10 10 0 6 -4 10 -10 10 -5
0 -10 -4 -10 -10z"/>
<path d="M10360 11470 c0 -5 4 -10 9 -10 6 0 13 5 16 10 3 6 -1 10 -9 10 -9 0
-16 -4 -16 -10z"/>
<path d="M11220 10216 c0 -11 9 -16 26 -16 31 0 28 23 -4 28 -15 2 -22 -2 -22
-12z"/>
<path d="M11630 8825 c0 -20 5 -25 25 -25 20 0 25 5 25 25 0 20 -5 25 -25 25
-20 0 -25 -5 -25 -25z"/>
<path d="M11873 9293 c-28 -11 -13 -33 22 -33 28 0 35 4 35 20 0 20 -26 26
-57 13z"/>
</g>
</svg>
